<svg width="296" height="76" viewBox="0 0 296 76" fill="none" xmlns="http://www.w3.org/2000/svg">
<g clip-path="url(#clip0_307_712)">
<path d="M55.8375 40.3503C56.8681 37.7482 57.5324 34.676 57.7135 31.3038C58.1524 23.1165 55.2859 17.6002 48.6995 13.9483C44.5246 11.634 40.3779 11.5367 38.9849 11.5813V13.6727C40.0639 13.6362 43.9167 13.6808 47.701 15.7763C51.6666 17.9771 56.1515 21.7141 55.6482 31.1903C55.5033 33.9302 55.0081 36.4675 54.2472 38.6683C52.7737 37.4361 50.9258 36.6296 48.7277 36.5039C44.2951 36.2567 41.3199 37.8617 39.8948 41.2744C39.3875 42.4823 39.3794 44.5696 40.559 46.2882C41.3964 47.5122 43.0994 48.9389 46.457 48.8254C49.8106 48.7038 52.7697 46.3449 54.8189 42.5512C55.7489 44.1238 56.2602 45.9923 56.3326 47.8283C56.4937 52.0071 53.9694 52.9515 52.4476 53.142C50.954 53.3284 47.4595 53.7702 47.0529 56.7938C47.0166 57.0492 46.9885 57.2883 46.9603 57.5193C46.7348 59.323 46.614 59.9836 45.7807 60.6402C45.1607 61.1307 41.5695 61.5117 38.4052 61.5887H37.1048C33.9404 61.5117 30.3493 61.1307 29.7293 60.6402C28.8959 59.9796 28.7751 59.323 28.5497 57.5193C28.5215 57.2883 28.4893 57.0492 28.4571 56.7938C28.0464 53.7702 24.5519 53.3325 23.0623 53.142C21.5446 52.9515 19.0203 52.0071 19.1773 47.8283C19.2457 45.9923 19.7611 44.1238 20.6911 42.5512C22.7403 46.3449 25.6993 48.7038 29.0529 48.8254C32.4106 48.9389 34.1135 47.5122 34.9509 46.2882C36.1305 44.5696 36.1225 42.4823 35.6152 41.2744C34.186 37.8617 31.2148 36.2567 26.7823 36.5039C24.5801 36.6255 22.7322 37.4321 21.2627 38.6683C20.5018 36.4675 20.0067 33.9302 19.8617 31.1903C19.3544 21.7141 23.8434 17.9731 27.8089 15.7763C31.5933 13.6768 35.4421 13.6362 36.5251 13.6727V11.5813C35.1321 11.5367 30.9854 11.634 26.8105 13.9483C20.224 17.6042 17.3576 23.1165 17.7964 31.3038C17.9776 34.676 18.6419 37.7482 19.6725 40.3503C18.0863 42.4377 17.2127 45.1249 17.112 47.7513C16.9228 52.7042 19.9302 54.8564 22.8087 55.2172C24.5761 55.4401 26.2388 55.8211 26.4079 57.0776C26.4401 57.3248 26.4723 57.5599 26.5005 57.7828C26.73 59.6148 26.9111 61.0618 28.4571 62.2858C29.8662 63.4004 34.959 63.6314 37.1128 63.6801H38.4132C40.5671 63.6314 45.6599 63.4004 47.069 62.2858C48.6149 61.0618 48.7961 59.6148 49.0256 57.7828C49.0538 57.5599 49.0819 57.3248 49.1182 57.0776C49.2873 55.817 50.95 55.4401 52.7174 55.2172C55.5959 54.8564 58.6033 52.7042 58.4141 47.7513C58.3134 45.1249 57.4398 42.4417 55.8536 40.3503H55.8375ZM46.3765 46.7421C44.4602 46.8151 43.039 46.2436 42.258 45.1046C41.5615 44.0914 41.5011 42.7903 41.795 42.0851C42.4754 40.4598 43.9247 38.3278 48.6029 38.5872C50.5595 38.6967 52.1698 39.5073 53.4018 40.7273C51.6907 44.3386 49.1745 46.6367 46.3765 46.738V46.7421ZM26.891 38.5872C31.5691 38.3238 33.0185 40.4557 33.6988 42.0851C33.9927 42.7903 33.9324 44.0914 33.2359 45.1046C32.4548 46.2436 31.0297 46.811 29.1173 46.7421C26.3193 46.6408 23.7991 44.3427 22.0921 40.7313C23.324 39.5113 24.9344 38.7007 26.891 38.5913V38.5872Z" fill="black"/>
<path d="M34.4453 49.9949V55.5071H41.0478V49.9949C41.0478 47.5508 38.9705 46.5659 37.8714 46.3835L37.7466 46.3633L37.6218 46.3835C36.5227 46.5619 34.4453 47.5508 34.4453 49.9949ZM35.9993 49.9949C35.9993 48.5114 37.2997 48.0656 37.7466 47.9562C38.1935 48.0656 39.4938 48.5114 39.4938 49.9949V53.9426H35.9993V49.9949Z" fill="black"/>
<path d="M36.8886 47.1289H38.5996L38.5996 0.388359H36.8886L36.8886 47.1289Z" fill="black"/>
<path d="M37.7472 0C38.033 0 38.3188 0.00405312 38.6047 0.0121594V1.73473C38.3188 1.72663 38.033 1.72257 37.7472 1.72257C17.8429 1.72257 1.71102 17.9634 1.71102 38.002C1.71102 58.0406 17.8429 74.2815 37.7472 74.2815C38.033 74.2815 38.3188 74.2774 38.6047 74.2693V75.9919C38.3188 76 38.033 76.0041 37.7472 76.0041C16.9009 76 0 58.9891 0 38.002C0 17.015 16.9009 0 37.7472 0Z" fill="black"/>
<path d="M81.5707 24.3008C83.9495 24.3008 86.0503 24.7911 87.8733 25.7716C89.7185 26.7521 91.1414 28.1337 92.1418 29.9164C93.1644 31.6769 93.6758 33.7047 93.6758 36C93.6758 38.2953 93.1644 40.3343 92.1418 42.117C91.1414 43.8774 89.7185 45.2479 87.8733 46.2284C86.0503 47.2089 83.9495 47.6992 81.5707 47.6992H72V24.3008H81.5707ZM81.3706 44.3565C83.0602 44.3565 84.5386 44.0111 85.8058 43.3203C87.0952 42.6295 88.0845 41.649 88.7737 40.3788C89.4629 39.1086 89.8075 37.649 89.8075 36C89.8075 34.351 89.4629 32.8914 88.7737 31.6212C88.0845 30.351 87.0952 29.3705 85.8058 28.6797C84.5386 27.9889 83.0602 27.6435 81.3706 27.6435H75.8016V44.3565H81.3706Z" fill="black"/>
<path d="M106.904 48C103.881 48 101.524 47.0975 99.8347 45.2925C98.1451 43.4875 97.3003 40.9025 97.3003 37.5376V24.3008H101.102V37.4039C101.102 42.1727 103.047 44.5571 106.938 44.5571C110.828 44.5571 112.773 42.1727 112.773 37.4039V24.3008H116.508V37.5376C116.508 40.9025 115.664 43.4875 113.974 45.2925C112.284 47.0975 109.928 48 106.904 48Z" fill="black"/>
<path d="M140.662 35.7994V45.0251C139.55 45.9833 138.238 46.7187 136.727 47.2312C135.237 47.7437 133.692 48 132.091 48C129.824 48 127.778 47.4875 125.955 46.4624C124.155 45.415 122.732 43.9889 121.687 42.1838C120.664 40.3565 120.153 38.2953 120.153 36C120.153 33.7047 120.664 31.6435 121.687 29.8162C122.732 27.9889 124.166 26.5627 125.989 25.5376C127.812 24.5125 129.868 24 132.158 24C133.981 24 135.648 24.3231 137.16 24.9694C138.672 25.5933 139.939 26.507 140.962 27.7103L138.527 30.1504C137.683 29.2145 136.749 28.5348 135.726 28.1114C134.704 27.6657 133.57 27.4429 132.325 27.4429C130.724 27.4429 129.29 27.8106 128.023 28.546C126.778 29.2813 125.8 30.2953 125.088 31.5877C124.377 32.8802 124.021 34.351 124.021 36C124.021 37.6267 124.366 39.0975 125.055 40.4123C125.766 41.7047 126.756 42.7187 128.023 43.454C129.29 44.1894 130.713 44.5571 132.291 44.5571C134.159 44.5571 135.782 44.0669 137.16 43.0864V35.7994H140.662Z" fill="black"/>
<path d="M155.989 48C153.721 48 151.676 47.4875 149.853 46.4624C148.052 45.415 146.629 43.9777 145.584 42.1504C144.562 40.3231 144.051 38.273 144.051 36C144.051 33.727 144.562 31.6769 145.584 29.8496C146.629 28.0223 148.052 26.5961 149.853 25.571C151.676 24.5237 153.721 24 155.989 24C158.234 24 160.257 24.5237 162.058 25.571C163.881 26.5961 165.304 28.0223 166.327 29.8496C167.371 31.6769 167.894 33.727 167.894 36C167.894 38.273 167.371 40.3231 166.327 42.1504C165.304 43.9777 163.881 45.415 162.058 46.4624C160.257 47.4875 158.234 48 155.989 48ZM155.989 44.5571C157.501 44.5571 158.868 44.1894 160.091 43.454C161.336 42.7187 162.303 41.7047 162.992 40.4123C163.703 39.1198 164.059 37.649 164.059 36C164.059 34.351 163.703 32.8802 162.992 31.5877C162.303 30.2953 161.336 29.2813 160.091 28.546C158.868 27.8106 157.501 27.4429 155.989 27.4429C154.455 27.4429 153.077 27.8106 151.854 28.546C150.631 29.2591 149.664 30.273 148.953 31.5877C148.263 32.8802 147.919 34.351 147.919 36C147.919 37.649 148.263 39.1309 148.953 40.4457C149.664 41.7382 150.631 42.7521 151.854 43.4875C153.077 44.2006 154.455 44.5571 155.989 44.5571Z" fill="black"/>
<path d="M175.678 24.3008V44.3565H187.416V47.6992H171.876V24.3008H175.678Z" fill="black"/>
<path d="M205.041 35.5655C206.419 35.9666 207.486 36.6685 208.242 37.6713C209.02 38.6518 209.409 39.8886 209.409 41.3816C209.409 43.4095 208.675 44.9694 207.208 46.0613C205.763 47.1532 203.629 47.6992 200.805 47.6992H189.934V24.3008H200.172C202.773 24.3008 204.774 24.8357 206.174 25.9053C207.575 26.9749 208.275 28.4568 208.275 30.351C208.275 31.5766 207.986 32.6351 207.408 33.5265C206.852 34.3955 206.063 35.0752 205.041 35.5655ZM193.702 34.3621H199.738C201.272 34.3621 202.439 34.0613 203.24 33.4596C204.062 32.8579 204.474 31.9889 204.474 30.8524C204.474 29.7159 204.062 28.8579 203.24 28.2786C202.439 27.6769 201.272 27.376 199.738 27.376H193.702V34.3621ZM200.539 44.5905C202.206 44.5905 203.462 44.3008 204.307 43.7214C205.152 43.1198 205.574 42.2061 205.574 40.9805C205.574 38.5515 203.896 37.337 200.539 37.337H193.702V44.5905H200.539Z" fill="black"/>
<path d="M217.259 24.3008V47.6992H213.458V24.3008H217.259Z" fill="black"/>
<path d="M224.94 38.5404C224.206 38.5404 223.595 38.3064 223.106 37.8384C222.639 37.3482 222.406 36.7242 222.406 35.9666C222.406 35.2312 222.639 34.6295 223.106 34.1616C223.595 33.6936 224.206 33.4596 224.94 33.4596C225.674 33.4596 226.274 33.6936 226.741 34.1616C227.23 34.6295 227.474 35.2312 227.474 35.9666C227.474 36.7242 227.23 37.3482 226.741 37.8384C226.274 38.3064 225.674 38.5404 224.94 38.5404Z" fill="black"/>
<path d="M242.755 48C240.532 48 238.52 47.4875 236.719 46.4624C234.919 45.415 233.496 43.9777 232.451 42.1504C231.428 40.3231 230.917 38.273 230.917 36C230.917 33.727 231.428 31.6769 232.451 29.8496C233.496 28.0223 234.919 26.5961 236.719 25.571C238.52 24.5237 240.543 24 242.789 24C244.589 24 246.223 24.3231 247.691 24.9694C249.18 25.6156 250.436 26.5627 251.459 27.8106L249.025 30.2173C247.379 28.3677 245.356 27.4429 242.955 27.4429C241.399 27.4429 239.999 27.8106 238.754 28.546C237.509 29.2813 236.53 30.3064 235.819 31.6212C235.13 32.9136 234.785 34.3733 234.785 36C234.785 37.6267 235.13 39.0975 235.819 40.4123C236.53 41.7047 237.509 42.7187 238.754 43.454C239.999 44.1894 241.399 44.5571 242.955 44.5571C245.356 44.5571 247.379 43.6212 249.025 41.7493L251.459 44.156C250.436 45.4262 249.18 46.3844 247.691 47.0306C246.201 47.6769 244.556 48 242.755 48Z" fill="black"/>
<path d="M274.387 47.6992H270.552V37.5376H258.681V47.6992H254.879V24.3008H258.681V34.0947H270.552V24.3008H274.387V47.6992Z" fill="black"/>
<path d="M296 47.6992H279.526V24.3008H295.566V27.5766H283.295V34.2284H294.199V37.4373H283.295V44.4234H296V47.6992Z" fill="black"/>
<path d="M100 61.3156V60.1244H109.618V61.3156H105.458V72.5689H104.16V61.3156H100Z" fill="black"/>
<path d="M117.427 68.5689C117.179 68.6163 116.876 68.64 116.521 68.64H113.392V72.5689H112.076V60.1244H116.521C118.038 60.1244 119.229 60.5037 120.094 61.2622C120.959 62.0089 121.392 63.0459 121.392 64.3733C121.392 65.3452 121.155 66.1689 120.681 66.8444C120.219 67.52 119.555 68.0059 118.69 68.3022L121.605 72.5689H120.13L117.427 68.5689ZM116.485 67.4667C117.647 67.4667 118.53 67.2 119.134 66.6667C119.75 66.1215 120.059 65.357 120.059 64.3733C120.059 63.4015 119.75 62.6489 119.134 62.1156C118.53 61.5822 117.647 61.3156 116.485 61.3156H113.392V67.4667H116.485Z" fill="black"/>
<path d="M126.005 69.2622L124.6 72.5689H123.214L128.636 60.1244H129.916L135.356 72.5689H133.951L132.547 69.2622H126.005ZM129.294 61.5822L126.449 68.1422H132.085L129.294 61.5822Z" fill="black"/>
<path d="M139.401 60.1244V72.5689H138.085V60.1244H139.401Z" fill="black"/>
<path d="M153.977 72.5689H152.892L145.337 62.5422V72.5689H144.039V60.1244H145.106L152.661 70.1511V60.1244H153.977V72.5689Z" fill="black"/>
<path d="M159.902 60.1244V72.5689H158.586V60.1244H159.902Z" fill="black"/>
<path d="M174.478 72.5689H173.393L165.838 62.5422V72.5689H164.54V60.1244H165.607L173.162 70.1511V60.1244H174.478V72.5689Z" fill="black"/>
<path d="M188.67 66.3111V71.0933C188.101 71.6148 187.437 72.0119 186.679 72.2844C185.92 72.557 185.126 72.6933 184.297 72.6933C183.111 72.6933 182.045 72.4207 181.097 71.8756C180.148 71.3304 179.402 70.5778 178.857 69.6178C178.311 68.6459 178.039 67.5556 178.039 66.3467C178.039 65.1378 178.311 64.0533 178.857 63.0933C179.402 62.1215 180.148 61.363 181.097 60.8178C182.057 60.2726 183.129 60 184.314 60C185.227 60 186.062 60.1541 186.821 60.4622C187.579 60.7704 188.225 61.2267 188.759 61.8311L187.923 62.6844C186.987 61.7126 185.802 61.2267 184.368 61.2267C183.408 61.2267 182.548 61.4519 181.79 61.9022C181.031 62.3407 180.433 62.9511 179.994 63.7333C179.568 64.5037 179.354 65.3748 179.354 66.3467C179.354 67.3067 179.568 68.1778 179.994 68.96C180.433 69.7304 181.031 70.3407 181.79 70.7911C182.548 71.2296 183.408 71.4489 184.368 71.4489C185.612 71.4489 186.637 71.1052 187.443 70.4178V66.3111H188.67Z" fill="black"/>
<path d="M202.994 72.6933C201.833 72.6933 200.778 72.4207 199.83 71.8756C198.882 71.3185 198.135 70.56 197.59 69.6C197.057 68.6281 196.79 67.5437 196.79 66.3467C196.79 65.1496 197.057 64.0711 197.59 63.1111C198.135 62.1393 198.882 61.3807 199.83 60.8356C200.778 60.2785 201.833 60 202.994 60C203.883 60 204.701 60.16 205.448 60.48C206.206 60.7881 206.852 61.2444 207.386 61.8489L206.532 62.7022C205.62 61.7185 204.464 61.2267 203.066 61.2267C202.129 61.2267 201.282 61.4519 200.523 61.9022C199.765 62.3407 199.172 62.9511 198.746 63.7333C198.319 64.5156 198.106 65.3867 198.106 66.3467C198.106 67.3067 198.319 68.1778 198.746 68.96C199.172 69.7304 199.765 70.3407 200.523 70.7911C201.282 71.2296 202.129 71.4489 203.066 71.4489C204.452 71.4489 205.608 70.9511 206.532 69.9556L207.386 70.8089C206.852 71.4252 206.206 71.8933 205.448 72.2133C204.701 72.5333 203.883 72.6933 202.994 72.6933Z" fill="black"/>
<path d="M218.879 72.5689H210.488V60.1244H218.648V61.2978H211.804V65.6711H217.902V66.8267H211.804V71.3778H218.879V72.5689Z" fill="black"/>
<path d="M232.559 72.5689H231.475L223.919 62.5422V72.5689H222.621V60.1244H223.688L231.244 70.1511V60.1244H232.559V72.5689Z" fill="black"/>
<path d="M235.32 61.3156V60.1244H244.938V61.3156H240.778V72.5689H239.48V61.3156H235.32Z" fill="black"/>
<path d="M255.787 72.5689H247.396V60.1244H255.556V61.2978H248.712V65.6711H254.81V66.8267H248.712V71.3778H255.787V72.5689Z" fill="black"/>
<path d="M264.561 68.5689C264.312 68.6163 264.01 68.64 263.654 68.64H260.525V72.5689H259.21V60.1244H263.654C265.171 60.1244 266.362 60.5037 267.227 61.2622C268.092 62.0089 268.525 63.0459 268.525 64.3733C268.525 65.3452 268.288 66.1689 267.814 66.8444C267.352 67.52 266.688 68.0059 265.823 68.3022L268.738 72.5689H267.263L264.561 68.5689ZM263.618 67.4667C264.78 67.4667 265.663 67.2 266.267 66.6667C266.884 66.1215 267.192 65.357 267.192 64.3733C267.192 63.4015 266.884 62.6489 266.267 62.1156C265.663 61.5822 264.78 61.3156 263.618 61.3156H260.525V67.4667H263.618Z" fill="black"/>
</g>
<defs>
<clipPath id="clip0_307_712">
<rect width="296" height="76" fill="white"/>
</clipPath>
</defs>
</svg>
