<svg width="427" height="642" viewBox="0 0 427 642" fill="none" xmlns="http://www.w3.org/2000/svg">
<path d="M0 641.006C16.8026 641.106 33.5786 639.901 50.1583 637.38C201.629 617.009 324.495 473.94 321.5 320.506C321.5 320.506 321.5 320.506 321.5 320.506C324.495 167.072 201.629 24.0026 50.1583 3.63167C33.5787 1.11052 16.8025 -0.0947393 0 0.00585938C16.8025 0.105278 33.5476 1.50045 50.0696 4.19473C200.968 26.2979 321.384 168.618 318.5 320.506C318.5 320.506 318.5 320.506 318.5 320.506C321.384 472.393 200.968 614.714 50.0696 636.817C33.5476 639.511 16.8026 640.906 0 641.006Z" fill="url(#paint0_linear_479_11)" fill-opacity="0.7"/>
<path d="M278.98 97.918C278.875 96.916 278.066 96.3184 276.783 96.3184C275.447 96.3184 274.709 96.9336 274.691 97.7773C274.674 98.6914 275.641 99.1133 276.73 99.3594L277.873 99.6406C280.053 100.133 281.688 101.24 281.688 103.367C281.688 105.705 279.859 107.182 276.766 107.182C273.689 107.182 271.721 105.758 271.65 103.033H274.217C274.305 104.316 275.324 104.967 276.73 104.967C278.119 104.967 279.016 104.316 279.016 103.367C279.016 102.506 278.225 102.102 276.836 101.75L275.447 101.416C273.303 100.889 271.984 99.8164 271.984 97.9531C271.984 95.6328 274.023 94.1035 276.801 94.1035C279.613 94.1035 281.477 95.668 281.512 97.918H278.98ZM282.468 96.459V94.2793H292.892V96.459H288.989V107.006H286.37V96.459H282.468ZM294.077 107.006V94.2793H299.069C301.969 94.2793 303.621 95.9141 303.621 98.4277C303.621 100.168 302.822 101.434 301.371 102.049L304.079 107.006H301.161L298.735 102.488H296.713V107.006H294.077ZM296.713 100.344H298.577C300.141 100.344 300.897 99.6934 300.897 98.4277C300.897 97.1445 300.141 96.4414 298.577 96.4414H296.713V100.344ZM312.875 94.2793H315.529V102.541C315.529 105.336 313.42 107.182 310.255 107.182C307.091 107.182 305 105.336 305 102.541V94.2793H307.636V102.33C307.636 103.789 308.673 104.861 310.255 104.861C311.855 104.861 312.875 103.789 312.875 102.33V94.2793ZM325.731 98.709C325.52 97.3027 324.43 96.4414 322.954 96.4414C320.968 96.4414 319.667 97.9707 319.667 100.643C319.667 103.385 320.985 104.844 322.936 104.844C324.395 104.844 325.468 104.035 325.731 102.664L328.403 102.682C328.104 105.037 326.136 107.182 322.901 107.182C319.491 107.182 316.977 104.791 316.977 100.643C316.977 96.4941 319.544 94.1035 322.901 94.1035C325.837 94.1035 328.052 95.791 328.403 98.709H325.731ZM329.307 96.459V94.2793H339.73V96.459H335.828V107.006H333.209V96.459H329.307ZM348.79 94.2793H351.445V102.541C351.445 105.336 349.335 107.182 346.171 107.182C343.007 107.182 340.915 105.336 340.915 102.541V94.2793H343.552V102.33C343.552 103.789 344.589 104.861 346.171 104.861C347.771 104.861 348.79 103.789 348.79 102.33V94.2793ZM353.139 107.006V94.2793H358.131C361.032 94.2793 362.684 95.9141 362.684 98.4277C362.684 100.168 361.884 101.434 360.434 102.049L363.141 107.006H360.223L357.797 102.488H355.776V107.006H353.139ZM355.776 100.344H357.639C359.204 100.344 359.959 99.6934 359.959 98.4277C359.959 97.1445 359.204 96.4414 357.639 96.4414H355.776V100.344ZM364.062 107.006V94.2793H372.605V96.459H366.699V99.5527H372.166V101.732H366.699V104.826H372.623V107.006H364.062Z" fill="#0E3880"/>
<path d="M284.113 120.734V122.123C284.113 123.617 284.113 125.234 283.674 127.484H285.941V128.855H279.561V135.518H277.873V128.855H271.58V127.484H281.986C282.461 125.243 282.461 123.591 282.461 122.123V122.105H273.338V120.734H284.113ZM301.101 132.16V133.531H286.687V132.16H293.05V128.434H294.72V132.16H301.101ZM294.738 122.615C294.738 125.023 297.462 127.168 300.468 127.643L299.8 128.961C297.26 128.478 294.913 127.001 293.894 124.936C292.865 127.027 290.536 128.548 288.04 129.031L287.355 127.713C290.29 127.221 292.997 125.023 292.997 122.615V122.475H287.882V121.104H299.853V122.475H294.738V122.615ZM316.19 126.975V128.258H301.776V126.975H316.19ZM314.414 129.365V132.828H305.168V134.129H314.907V135.307H303.498V131.721H312.762V130.561H303.481V129.365H314.414ZM314.379 120.154V123.564H305.274V124.76H314.643V125.938H303.621V122.457H312.709V121.332H303.586V120.154H314.379ZM333.888 119.75V128.064H332.235V119.75H333.888ZM328.104 128.715V132.512H324.413V134.041C326.373 134.032 327.63 133.962 329.124 133.689L329.3 134.938C327.559 135.271 326.188 135.307 323.78 135.307H322.796V131.316H326.47V129.998H322.796V128.715H328.104ZM333.888 128.715V135.395H332.253V130.086H328.755V128.715H333.888ZM325.309 120.436C327.682 120.436 329.423 121.912 329.44 124.004C329.423 126.096 327.682 127.555 325.309 127.555C322.919 127.555 321.161 126.096 321.161 124.004C321.161 121.912 322.919 120.436 325.309 120.436ZM325.309 121.824C323.85 121.824 322.778 122.703 322.796 124.004C322.778 125.305 323.85 126.201 325.309 126.201C326.751 126.201 327.823 125.305 327.823 124.004C327.823 122.703 326.751 121.824 325.309 121.824ZM348.221 119.75V125.85H350.752V127.221H348.221V135.535H346.551V119.75H348.221ZM343.984 121.262V122.615H338.289V130.227C340.935 130.218 342.921 130.104 345.162 129.699L345.373 131.105C342.912 131.545 340.82 131.633 337.885 131.615H336.619V121.262H343.984Z" fill="#1E2732"/>
<circle cx="236" cy="103.006" r="13" fill="#C7D4EB"/>
<circle cx="236" cy="103.006" r="8" fill="#0E3880"/>
<path d="M346.072 324.006V311.279H351.135C353.947 311.279 355.354 312.633 355.354 314.549C355.354 316.043 354.387 316.975 353.068 317.273V317.396C354.51 317.467 355.863 318.609 355.863 320.49C355.863 322.512 354.352 324.006 351.469 324.006H346.072ZM350.941 321.826C352.471 321.826 353.121 321.193 353.121 320.244C353.121 319.172 352.312 318.416 351.012 318.416H348.709V321.826H350.941ZM350.748 316.605C351.855 316.605 352.682 315.99 352.682 314.971C352.682 314.057 352.014 313.424 350.801 313.424H348.709V316.605H350.748ZM359.21 324.006H356.363L360.775 311.279H364.167L368.562 324.006H365.732L364.782 321.07H360.177L359.21 324.006ZM360.845 319.014H364.114L362.515 314.145H362.427L360.845 319.014ZM369.553 324.006V311.279H372.19V321.826H377.674V324.006H369.553ZM381.39 324.006H378.543L382.955 311.279H386.347L390.742 324.006H387.912L386.963 321.07H382.357L381.39 324.006ZM383.025 319.014H386.295L384.695 314.145H384.607L383.025 319.014ZM402.35 311.279V324.006H400.065L394.475 315.92H394.37V324.006H391.733V311.279H394.054L399.608 319.365H399.731V311.279H402.35ZM412.553 315.709C412.342 314.303 411.252 313.441 409.775 313.441C407.789 313.441 406.488 314.971 406.488 317.643C406.488 320.385 407.807 321.844 409.758 321.844C411.217 321.844 412.289 321.035 412.553 319.664L415.225 319.682C414.926 322.037 412.957 324.182 409.723 324.182C406.312 324.182 403.799 321.791 403.799 317.643C403.799 313.494 406.365 311.104 409.723 311.104C412.658 311.104 414.873 312.791 415.225 315.709H412.553ZM416.62 324.006V311.279H425.163V313.459H419.257V316.553H424.724V318.732H419.257V321.826H425.181V324.006H416.62Z" fill="#0E3880"/>
<path d="M358.166 337.576V338.824C358.166 340.081 358.166 341.54 357.814 343.447H359.994V344.801H356.109V348.492H354.492V344.801H351.996V348.492H350.361V344.801H345.58V343.447H356.145C356.505 341.558 356.514 340.151 356.514 338.912H347.373V337.576H358.166ZM358.588 350.812V352.166H347.268V347.174H348.938V350.812H358.588ZM369.564 338.402V339.738H360.704V338.402H364.396V336.609H366.048V338.402H369.564ZM365.204 340.459C367.331 340.459 368.825 341.637 368.843 343.395C368.825 345.152 367.331 346.312 365.204 346.312C363.06 346.312 361.583 345.152 361.583 343.395C361.583 341.637 363.06 340.459 365.204 340.459ZM365.204 341.725C363.956 341.725 363.148 342.375 363.148 343.395C363.148 344.414 363.956 345.047 365.204 345.047C366.435 345.047 367.279 344.414 367.296 343.395C367.279 342.375 366.435 341.725 365.204 341.725ZM373.818 336.75V346.893H372.148V344.871H369.599V343.518H372.148V341.777H369.616V340.424H372.148V336.75H373.818ZM368.579 347.051C371.884 347.051 373.905 348.035 373.905 349.758C373.905 351.463 371.884 352.482 368.579 352.465C365.257 352.482 363.236 351.463 363.236 349.758C363.236 348.035 365.257 347.051 368.579 347.051ZM368.579 348.334C366.312 348.334 364.976 348.826 364.976 349.758C364.976 350.672 366.312 351.199 368.579 351.182C370.794 351.199 372.13 350.672 372.13 349.758C372.13 348.826 370.794 348.334 368.579 348.334ZM382.965 337.014C386.516 337.014 388.59 337.963 388.59 339.721C388.59 341.479 386.516 342.445 382.965 342.445C379.414 342.445 377.34 341.479 377.34 339.721C377.34 337.963 379.414 337.014 382.965 337.014ZM382.965 338.244C380.452 338.244 379.063 338.789 379.08 339.721C379.063 340.688 380.452 341.197 382.965 341.197C385.479 341.197 386.868 340.688 386.868 339.721C386.868 338.789 385.479 338.244 382.965 338.244ZM390.155 343.412V344.748H375.793V343.412H390.155ZM388.344 345.961V349.652H379.168V351.059H388.784V352.342H377.534V348.439H386.692V347.209H377.516V345.961H388.344ZM400.364 340.002C400.364 341.795 401.788 343.482 404.196 344.15L403.44 345.434C401.603 344.924 400.259 343.816 399.555 342.393C398.861 343.948 397.481 345.161 395.618 345.732L394.809 344.414C397.218 343.729 398.712 341.971 398.712 340.002V339.826H395.284V338.49H398.712V336.68H400.382V338.49H403.792V339.826H400.364V340.002ZM407.22 336.75V340.529H409.505V341.918H407.22V345.838H405.55V336.75H407.22ZM407.466 346.629V347.965H403.159C403.458 349.433 405.479 350.777 408.116 351.164L407.501 352.447C405.11 352.078 403.141 350.979 402.227 349.477C401.322 350.971 399.371 352.052 396.989 352.43L396.374 351.146C399.019 350.777 401.014 349.477 401.331 347.965H397.007V346.629H407.466ZM422.221 336.75V342.85H424.752V344.221H422.221V352.535H420.551V336.75H422.221ZM417.984 338.262V339.615H412.289V347.227C414.935 347.218 416.921 347.104 419.162 346.699L419.373 348.105C416.912 348.545 414.82 348.633 411.885 348.615H410.619V338.262H417.984Z" fill="#1E2732"/>
<circle cx="320" cy="320.006" r="13" fill="#C7D4EB"/>
<circle cx="320" cy="320.006" r="8" fill="#0E3880"/>
<path d="M270.58 532.709C270.369 531.303 269.279 530.441 267.803 530.441C265.816 530.441 264.516 531.971 264.516 534.643C264.516 537.385 265.834 538.844 267.785 538.844C269.244 538.844 270.316 538.035 270.58 536.664L273.252 536.682C272.953 539.037 270.984 541.182 267.75 541.182C264.34 541.182 261.826 538.791 261.826 534.643C261.826 530.494 264.393 528.104 267.75 528.104C270.686 528.104 272.9 529.791 273.252 532.709H270.58ZM274.648 541.006V528.279H277.284V533.553H282.804V528.279H285.458V541.006H282.804V535.732H277.284V541.006H274.648ZM289.28 541.006H286.432L290.844 528.279H294.237L298.631 541.006H295.801L294.852 538.07H290.246L289.28 541.006ZM290.914 536.014H294.184L292.584 531.145H292.496L290.914 536.014ZM310.24 528.279V541.006H307.955L302.365 532.92H302.259V541.006H299.623V528.279H301.943L307.498 536.365H307.621V528.279H310.24ZM320.389 532.375C320.038 531.18 319.071 530.441 317.682 530.441C315.714 530.441 314.378 531.953 314.378 534.625C314.378 537.314 315.679 538.844 317.7 538.844C319.519 538.844 320.6 537.815 320.636 536.207H317.876V534.221H323.184V535.803C323.184 539.143 320.899 541.182 317.682 541.182C314.114 541.182 311.688 538.686 311.688 534.66C311.688 530.529 314.272 528.104 317.63 528.104C320.495 528.104 322.71 529.861 323.061 532.375H320.389ZM324.668 541.006V528.279H333.211V530.459H327.305V533.553H332.771V535.732H327.305V538.826H333.229V541.006H324.668Z" fill="#0E3880"/>
<path d="M274.711 553.768V565.404H273.041V561.309H269.596V562.785H262.336V554.805H264.006V557.477H267.943V554.805H269.596V556.562H273.041V553.768H274.711ZM275.062 567.812V569.166H264.428V564.262H266.115V567.812H275.062ZM264.006 561.432H267.943V558.76H264.006V561.432ZM269.596 559.955H273.041V557.934H269.596V559.955ZM289.027 553.75V560.342H291.4V561.748H289.027V569.5H287.357V553.75H289.027ZM276.493 565.211C277.733 565.211 279.174 565.211 280.677 565.158V563.559C278.902 563.312 277.741 562.24 277.759 560.711C277.741 558.936 279.271 557.758 281.521 557.758C283.753 557.758 285.3 558.936 285.318 560.711C285.3 562.24 284.122 563.321 282.347 563.576V565.088C283.744 565.035 285.151 564.921 286.46 564.736L286.566 565.967C283.155 566.582 279.464 566.6 276.757 566.6L276.493 565.211ZM286.232 555.613V556.949H276.792V555.613H280.677V553.785H282.347V555.613H286.232ZM281.521 559.059C280.202 559.059 279.323 559.709 279.323 560.711C279.323 561.713 280.202 562.328 281.521 562.328C282.839 562.328 283.718 561.713 283.718 560.711C283.718 559.709 282.839 559.059 281.521 559.059ZM306.19 560.975V562.258H291.776V560.975H306.19ZM304.414 563.365V566.828H295.168V568.129H304.907V569.307H293.498V565.721H302.762V564.561H293.481V563.365H304.414ZM304.379 554.154V557.564H295.274V558.76H304.643V559.938H293.621V556.457H302.709V555.332H293.586V554.154H304.379ZM318.825 555.139V562.486H311.46V555.139H318.825ZM313.095 556.492V561.168H317.19V556.492H313.095ZM323.22 553.732V558.443H325.505V559.85H323.22V565.281H321.55V553.732H323.22ZM323.888 567.812V569.166H313.235V564.174H314.905V567.812H323.888ZM340.33 560.201V561.537H325.951V560.201H340.33ZM338.625 557.723V559.059H327.832V554.207H338.467V555.561H329.502V557.723H338.625ZM338.502 562.785V566.6H329.326V568.006H338.941V569.324H327.691V565.369H336.85V564.068H327.674V562.785H338.502ZM353.327 553.75V559.85H355.859V561.221H353.327V569.535H351.657V553.75H353.327ZM349.091 555.262V556.615H343.396V564.227C346.041 564.218 348.028 564.104 350.269 563.699L350.48 565.105C348.019 565.545 345.927 565.633 342.991 565.615H341.726V555.262H349.091Z" fill="#1E2732"/>
<circle cx="236" cy="537.006" r="13" fill="#C7D4EB"/>
<circle cx="236" cy="537.006" r="8" fill="#0E3880"/>
<defs>
<linearGradient id="paint0_linear_479_11" x1="320" y1="320.506" x2="48" y2="320.506" gradientUnits="userSpaceOnUse">
<stop stop-color="#0E3880"/>
<stop offset="1" stop-color="white"/>
</linearGradient>
</defs>
</svg>
